<svg xmlns="http://www.w3.org/2000/svg" viewBox="0 0 512 512">
  <defs>
    <linearGradient id="g" x1="0%" y1="0%" x2="100%" y2="100%">
      <stop offset="0%" stop-color="#22c55e"/>
      <stop offset="100%" stop-color="#16a34a"/>
    </linearGradient>
  </defs>
  <rect width="512" height="512" rx="96" fill="url(#g)"/>
  <g fill="none" stroke="white" stroke-width="22" stroke-linecap="round" stroke-linejoin="round" transform="translate(256,256) rotate(-30)">
    <!-- Fork (left) -->
    <path d="M-60-140v60c0 25-15 40-40 40h-15c-25 0-40-15-40-40v-60"/>
    <path d="M-60-140h-15"/>
    <path d="M-75-160v-30"/>
    <path d="M-60-160v-30"/>
    <path d="M-90-160v-30"/>
    <!-- Knife (right) -->
    <path d="M60-140v60c0 25 15 40 40 40h15c25 0 40-15 40-40v-100"/>
    <path d="M60-140h15"/>
    <path d="M75-160v-30"/>
  </g>
</svg>
